<?xml version="1.0" encoding="iso-8859-1"?>
<svg fill="#000000" version="1.1" id="Layer_1" xmlns="http://www.w3.org/2000/svg" xmlns:xlink="http://www.w3.org/1999/xlink" viewBox="0 0 512 512" xml:space="preserve">
<g>
	<g>
		<path d="M452.52,321.769V218.204c9.762-10.714,15.722-24.948,15.722-40.55V64.983H342.469v-36.16    C342.469,12.929,329.538,0,313.646,0H198.354c-15.893,0-28.823,12.929-28.823,28.823v36.16H43.758v112.671    c0,15.601,5.961,29.836,15.722,40.55v103.564H19.652v83.324c0,23.621,17.266,43.275,39.838,47.032    C59.701,485.176,86.646,512,119.746,512h272.508c33.1,0,60.044-26.824,60.257-59.875c22.572-3.756,39.838-23.411,39.838-47.032    v-83.324H452.52z M59.48,436.079c-13.838-3.512-24.106-16.072-24.106-30.986v-36.16H59.48V436.079z M59.48,353.212H35.374V337.49    H59.48V353.212z M185.253,28.823c0-7.225,5.877-13.101,13.101-13.101h115.292c7.225,0,13.101,5.877,13.101,13.101v36.16H185.253    V28.823z M436.798,451.734c0,24.562-19.982,44.544-44.544,44.544H119.746c-24.562,0-44.544-19.982-44.544-44.544V230.567    c8.567,4.685,18.389,7.354,28.823,7.354h27.775v29.871h-19.914v59.742h19.914v33.539c0,16.471,13.4,29.871,29.871,29.871    s29.871-13.4,29.871-29.871v-33.539h19.914v-59.742h-19.914V237.92h56.598v205.953H98.784v15.722h282.989v-15.722H263.861V237.92    h56.598v29.871h-19.914v59.742h19.914v33.539c0,16.471,13.4,29.871,29.871,29.871c16.471,0,29.871-13.4,29.871-29.871v-33.539    h19.914v-59.742h-19.914V237.92h27.775c10.434,0,20.256-2.669,28.823-7.354V451.734z M195.734,283.513v28.299h-68.127v-28.299    H195.734z M147.521,267.791v-92.757h28.299v92.757H147.521z M175.82,327.533v33.539c0,7.802-6.347,14.149-14.149,14.149    s-14.149-6.347-14.149-14.149v-33.539H175.82z M384.393,283.513v28.299h-68.127v-28.299H384.393z M336.18,267.791v-92.757h28.299    v92.757H336.18z M364.479,327.533v33.539c0,7.802-6.347,14.149-14.149,14.149c-7.802,0-14.149-6.347-14.149-14.149v-33.539    H364.479z M407.975,222.199h-27.775v-62.886h-59.742v62.886H191.541v-62.886h-59.742v62.886h-27.775    c-24.562,0-44.544-19.982-44.544-44.544v-96.95h393.04v96.95C452.52,202.216,432.538,222.199,407.975,222.199z M476.626,405.093    c0,14.915-10.268,27.474-24.106,30.986v-67.146h24.106V405.093z M476.626,353.212H452.52V337.49h24.106V353.212z"/>
	</g>
</g>
<g>
	<g>
		<rect x="397.494" y="443.873" width="15.722" height="15.722"/>
	</g>
</g>
</svg>